<svg width="780" height="423" viewBox="0 0 780 423" fill="none" xmlns="http://www.w3.org/2000/svg">
<g id="Signature_Box">
<path id="Coole" d="M447 201C443.69 200.34 436.36 199 422.955 202.795C411.972 205.904 393.38 214.18 380.885 219.74C362.469 227.935 355.68 234.31 352.69 240.945C350.785 245.172 349.04 251.54 347.855 260.875C345.135 282.301 346.66 298.3 347.99 304.125C349.63 311.306 353.32 315.64 356.985 319.655C360.416 323.413 367.3 326.98 380.105 331.815C399.832 339.264 416.94 334.34 426.305 332.01C431.625 330.686 432.66 324.02 440.8 306.08C448.216 289.735 448.99 279.01 451.975 277.51C453.815 276.585 456.94 277 459.46 277.99C461.98 278.98 463.96 280.96 464.485 281.65C468.401 286.797 446.02 281.66 441.85 284.815C434.999 289.998 433.7 303.58 432.99 321.44C432.741 327.703 439.98 330.32 444.465 332.65C455.46 338.362 465.65 334.67 468.81 333.18C478.725 328.505 472.34 309.7 465.195 287.585C463.712 282.996 463.34 282.02 463.665 281.345C465.763 276.988 475.64 281.32 486.955 285.32C493.964 287.798 502.28 288.32 509.645 289.165C510.991 289.319 511.98 289.66 512.49 289.335C513 289.01 513 288.02 512.505 287.345C509.24 282.892 501.01 284 498.85 284.33C490.508 285.604 484.68 299.96 483.5 307.635C481.157 322.872 507.96 332.32 517.3 333.665C519.299 333.953 520.64 333.34 521.815 332.345C528.466 326.713 525.34 311.06 522.515 298.22C520.599 289.512 517.34 284.01 517 282.51C516.62 280.835 525.61 282.66 537.41 283.66C550.159 284.74 562.61 282.35 574.41 278.365C587.529 273.935 598.62 267.03 606.28 261.87C614.453 256.365 615.98 244.38 621.98 224.58C624.371 216.691 622.34 212.01 620.845 210.18C619.35 208.351 616.68 207.67 612.7 207.5C610.038 207.386 606.08 208.32 593.645 214.435C581.21 220.55 560.42 232.1 548.72 239.205C537.02 246.31 535.04 248.62 534.02 250.305C532.537 252.754 532.01 256.64 531.17 269.55C530.503 279.799 532.64 297.64 534.475 311.605C537.588 335.299 542.98 349.95 546.97 358.935C548.8 363.055 550.96 365.94 553.135 367.47C564.185 375.243 585.94 357.04 592.98 350.36C601.021 342.73 597.66 329.38 597.505 311.73C597.475 308.304 596.02 307.68 595.015 307.67C587.375 307.594 579.36 322.62 576.34 334.29C574.08 343.022 579.64 353.28 584.975 360.31C588.7 365.219 594.32 366.33 597.145 366.83C603.32 366.67 607.98 364.68 611.985 362.84C612.99 362.34 613.98 361.68 616 360" stroke="black" stroke-width="2" stroke-linecap="round"/>
<path id="Mc" d="M45 319C45.33 319 45.66 319 57.38 308.44C69.1 297.88 92.2 276.76 107.235 262.085C122.27 247.41 128.54 239.82 133.09 233.765C146.106 216.444 146 199.08 144.84 193.005C144.556 191.517 136.4 207.87 125.905 228.69C118.803 242.778 119.34 251.94 121.82 268.11C122.543 272.827 124.99 275.32 126.985 277.65C128.677 279.626 131.65 280.99 135.635 281.5C141.435 282.242 145.98 275.02 152.28 267.235C164.143 252.575 171.32 238.7 173.65 232.545C177.266 222.994 177 216.35 177 215.335C177 211.73 174.69 236.19 171.19 262.97C168.186 285.955 170.66 301.95 172.485 312.255C174.459 323.402 177.99 330.65 179.985 333.48C180.878 334.747 181.98 335.32 195.03 328.235C208.08 321.15 233.16 306.3 246.245 298.155C259.33 290.01 259.66 289.02 260.16 287.52C261.32 284.04 262 279.03 262.825 276.18C263.057 275.379 265.3 279.6 266.15 281.96C267 284.32 267 285.64 265.185 286.32C255.61 289.907 250.36 289.32 245.185 293.98C240.295 298.383 239.34 303.98 238.335 309.81C237.141 316.736 243.98 325.3 252.465 333.14C255.705 336.134 260.64 336.33 267.61 336.17C278.036 335.931 286.64 330.69 291.3 326.365C296.66 319.35 298 312.37 297.835 306.375C297.67 304.01 297.34 303.02 297 302" stroke="black" stroke-width="2" stroke-linecap="round"/>
<path id="Sinead" d="M160.681 44.0821C160.681 43.786 161.986 40.377 164.057 33.8145C166.079 27.4067 164.455 21.3804 162.579 16.9015C161.722 14.8539 159.957 13.6068 157.977 12.6985C153.887 10.823 145.852 10.8885 136.076 11.1106C127.753 11.2996 120.219 13.5664 113.077 16.6211C106.046 19.6278 102.487 24.4754 100.698 27.9092C99.4299 30.344 99.6499 33.2987 100.023 37.0262C100.434 41.1337 104.148 45.8494 108.378 50.4786C110.243 52.5201 112.048 53.6275 117.668 58.6042C123.288 63.581 132.799 72.3145 138.817 78.2938C144.835 84.2732 147.073 87.2337 148.972 90.6091C152.86 97.5219 153.713 104.162 152.591 109.902C151.277 116.625 146.57 121.813 142.815 125.173C139.252 128.361 133.951 128.56 130.193 128.266C128.23 128.112 126.436 126.788 121.093 122.849C115.75 118.911 106.985 112.102 102.097 107.854C97.2086 103.606 96.4627 102.126 97.2906 100.623C98.1184 99.1206 100.543 97.6403 103.004 96.8778C107.642 95.4406 112.438 96.4112 116.851 97.3779C122.074 98.5218 128.803 103.705 137.353 111.012C141.686 114.714 145.717 118.615 149.509 121.708C160.616 130.768 167.253 130.802 170.92 130.805C173.754 130.806 177.419 124.724 182.307 114.064C184.854 108.51 186.449 102.368 186.384 104.201C186.319 106.033 184.268 115.951 183.397 121.948C182.275 129.68 184.217 132.736 186.282 134.974C188.324 137.186 191.185 137.979 193.253 138.13C194.951 138.253 197.395 136.351 200.964 132.85C205.331 128.566 208.138 123.5 210.299 117.915C213.244 110.305 213.235 104.351 213.328 103.075C213.337 102.957 213.608 104.019 212.678 108.919C211.748 113.82 209.697 122.553 208.454 125.942C207.211 129.331 206.838 127.111 206.925 124.635C207.108 119.471 210.2 112.012 213.774 104.835C215.036 102.303 216.23 102.395 216.99 102.617C221.08 103.812 222.638 113.412 224.345 123.146C224.892 126.268 225.096 128.403 226.969 130.636C229.838 134.057 235.618 136.773 242.286 139.011C249.314 141.37 254.849 141.868 257.762 141.424C260.906 140.945 267.987 135.624 278.617 128.761C286.85 123.446 289.512 116.628 291.207 111.7C291.925 109.613 291.783 108.253 291.41 107.271C291.037 106.289 290.292 105.696 289.441 105.317C287.782 104.578 284.46 105.23 279.577 106.867C273.622 108.864 269.569 112.546 266.939 116.419C263.668 121.236 263.15 127.779 264.551 134.344C265.934 140.823 272.361 144.398 276.308 146.489C279.671 148.269 285.341 149.189 293.137 149.494C297.214 149.654 301.492 148.023 306.778 145.044C312.065 142.066 318.219 137.329 322.415 133.631C333.464 123.891 334.539 117.068 335.197 113.93C335.453 112.712 335.669 112.272 337.07 113.006C345.038 117.176 346.768 121.952 347.734 124.749C348.797 127.825 342.275 119.597 340.489 118.328C339.068 117.318 337.376 117.198 335.686 117.346C331.082 117.749 324.424 124.635 317.888 132.121C314.94 135.498 317.021 139.76 318.611 143.483C320.964 148.99 325.859 152.921 329.151 154.863C331.323 156.145 335.081 156.222 340.342 155.334C346.447 154.304 349.972 148.767 353.261 143.481C357.668 136.397 357.341 128.295 356.12 122.769C355.613 120.474 354.713 119.315 354.329 122.479C353.944 125.644 353.944 133.193 354.131 138.193C354.317 143.192 354.69 145.412 355.162 147.222C355.634 149.032 356.193 150.364 359.092 151.125C366.879 153.167 377.441 150.113 385.44 146.085C388.817 144.384 389.896 142.353 391.874 138.773C393.852 135.194 396.462 129.865 399.019 125.64C403.493 118.246 407.244 115.255 409.493 115.179C410.998 115.128 413.234 115.547 414.947 116.366C416.659 117.184 417.778 118.516 420.219 123.347C422.66 128.178 426.39 136.468 428.498 140.96C430.606 145.452 430.979 145.897 430.984 144.645C431.003 140.423 429.3 133.978 427.514 127.932C426.193 123.456 423.655 120.203 420.835 117.812C419.636 116.795 418.388 116.605 414.455 120.154C410.522 123.702 403.809 131.103 398.952 138.098C394.095 145.094 391.297 151.459 389.856 155.33C388.415 159.201 388.415 160.385 388.602 161.513C388.788 162.641 389.161 163.678 390.379 164.507C393.207 166.435 400.983 166.687 411.132 165.949C416.164 165.584 420.536 163.139 425.359 159.113C430.182 155.088 435.217 149.019 438.65 141.969C442.083 134.92 443.761 127.075 444.719 118.593C445.677 110.11 445.863 101.229 444.561 90.0663C443.258 78.9039 440.461 65.7296 438.274 57.8327C436.087 49.9358 434.595 47.7154 433.454 46.2015C432.312 44.6876 431.566 43.9475 427.919 60.5151C424.271 77.0827 417.744 110.981 415.314 132.07C412.884 153.159 414.749 160.412 416.922 165.259C419.095 170.105 421.519 172.326 426.031 174.062C430.543 175.798 437.07 176.982 451.249 177C465.427 177.018 487.059 175.834 509.298 172.337C531.538 168.84 553.729 163.067 570.849 156.171C587.969 149.274 599.344 141.429 604.458 136.499C609.572 131.569 608.08 129.793 606.543 127.963" stroke="black" stroke-width="2" stroke-linecap="round"/>
</g>
</svg>
